<?xml version="1.0" encoding="utf-8"?>
<!-- Generator: Adobe Illustrator 19.0.0, SVG Export Plug-In . SVG Version: 6.00 Build 0)  -->
<svg version="1.1" id="Layer_1" xmlns="http://www.w3.org/2000/svg" xmlns:xlink="http://www.w3.org/1999/xlink" x="0px" y="0px"
	 viewBox="0 0 96 96" style="enable-background:new 0 0 96 96;" xml:space="preserve">
<style type="text/css">
	.st0{fill:#333333;}
</style>
<g id="XMLID_1_">
	<path id="XMLID_3_" class="st0" d="M44,15.5c3.4,9.2,1.7,14.3-2.2,18.2C37.7,38.2,31,41.5,26.5,48c-6.1,8.7-7.2,27.6,14.9,32.5
		c-9.3-4.9-11.3-19.1-1.3-27.9c-2.6,8.6,2.2,14.1,8.2,12.1c5.9-2,9.7,2.2,9.6,7.1c-0.1,3.3-1.3,6.1-4.8,7.6
		c14.5-2.5,20.2-14.5,20.2-23.5c0-12-10.7-13.6-5.3-23.7c-6.4,0.5-8.6,4.8-8,11.6c0.4,4.6-4.3,7.6-7.9,5.6c-2.8-1.7-2.8-5-0.3-7.5
		C57.2,36.7,59.3,24.6,44,15.5L44,15.5L44,15.5z"/>
</g>
</svg>
